<?xml version="1.0" encoding="UTF-8"?><svg id="Lager_3" xmlns="http://www.w3.org/2000/svg" viewBox="0 0 272.05 112.57"><defs><style>.cls-1{fill:#fff;}.cls-2{fill:#e4200e;}.cls-3{fill:#e1e3e3;}.cls-4{fill:#1a1a18;}</style></defs><path class="cls-1" d="m118.98,33.74c2.29.88,4.5,2.78,4.5,6.18,0,4.27-3.51,7.36-8.32,7.36h-8.96c-.42,0-.73-.34-.73-.72v-25.25c0-.38.31-.73.73-.73h8.54c4.62,0,7.93,3.05,7.93,7.06,0,2.86-1.6,5-3.7,6.03v.08Zm-3.7,10.03c2.59,0,3.97-1.79,3.97-4.16s-1.75-4.01-3.97-4.01h-5.95v8.16h5.95Zm-.92-11.6c2.44,0,4.08-1.68,4.08-4.08s-1.64-3.93-4.08-3.93h-5v8.01h5Z"/><path class="cls-1" d="m140.79,20.2c7.63,0,13.73,6.14,13.73,13.77s-6.1,13.69-13.73,13.69-13.69-6.07-13.69-13.69,6.07-13.77,13.69-13.77Zm0,23.77c5.46,0,9.92-4.54,9.92-9.99s-4.46-10.07-9.92-10.07-9.88,4.65-9.88,10.07,4.46,9.99,9.88,9.99Z"/><path class="cls-1" d="m159.44,21.31c0-.38.3-.73.69-.73h8.77c7.36,0,13.39,5.99,13.39,13.31s-6.03,13.39-13.39,13.39h-8.77c-.38,0-.69-.34-.69-.72v-25.25Zm9.04,22.35c5.61,0,9.58-4.12,9.58-9.77s-3.97-9.69-9.58-9.69h-5.15v19.46h5.15Z"/><path class="cls-1" d="m187.25,21.31c0-.38.3-.73.72-.73h15.26c.42,0,.72.34.72.73v2.14c0,.38-.3.72-.72.72h-12.05v7.78h10.19c.38,0,.72.34.72.72v2.14c0,.42-.34.73-.72.73h-10.19v8.2h12.05c.42,0,.72.34.72.73v2.1c0,.38-.3.72-.72.72h-15.26c-.42,0-.72-.34-.72-.72v-25.25Z"/><path class="cls-1" d="m208.84,20.89c0-.38.34-.69.72-.69h.3c.38,0,.65,0,1.14.57l16.02,18.58h.08v-18.04c0-.38.3-.73.72-.73h2.44c.38,0,.72.34.72.73v25.67c0,.38-.34.69-.72.69h-.34c-.38,0-.65,0-1.11-.53l-16.06-19.15h-.08v18.58c0,.38-.3.72-.72.72h-2.4c-.38,0-.72-.34-.72-.72v-25.67Z"/><path class="cls-1" d="m236.11,43.43l.99-1.56c.3-.5.88-.65,1.3-.31,1.79,1.49,3.17,2.63,6.1,2.63,2.63,0,4.31-1.6,4.31-3.55,0-2.29-1.98-3.74-5.76-5.3-3.89-1.64-6.94-3.66-6.94-8.09,0-2.98,2.29-7.06,8.35-7.06,3.81,0,6.68,1.98,7.06,2.25.3.19.61.72.23,1.3l-.95,1.45c-.3.5-.8.72-1.33.38-1.49-.95-2.94-1.91-5.15-1.91-3.2,0-4.31,2.02-4.31,3.43,0,2.17,1.68,3.51,4.84,4.81,4.42,1.79,8.2,3.89,8.2,8.54,0,3.97-3.55,7.21-8.51,7.21-4.65,0-7.59-2.44-8.2-3.01-.34-.31-.65-.57-.23-1.22Z"/><path class="cls-1" d="m105.47,55.3c0-.5.38-.92.92-.92h2.21c.5,0,.92.42.92.92v10.57l10.76-11.1c.15-.19.42-.38.72-.38h2.86c.69,0,1.07.8.53,1.37l-11.02,11.22,11.67,12.86c.3.38.11,1.26-.69,1.26h-3.05c-.38,0-.61-.15-.69-.27l-11.1-12.51v11.86c0,.5-.42.92-.92.92h-2.21c-.53,0-.92-.42-.92-.92v-24.87Z"/><path class="cls-1" d="m139.42,54.01c7.63,0,13.73,6.14,13.73,13.77s-6.1,13.7-13.73,13.7-13.69-6.07-13.69-13.7,6.07-13.77,13.69-13.77Zm0,23.77c5.46,0,9.92-4.54,9.92-10s-4.46-10.07-9.92-10.07-9.88,4.65-9.88,10.07,4.46,10,9.88,10Z"/><path class="cls-1" d="m160.97,54.58c.08-.31.38-.57.69-.57h.61c.23,0,.57.19.65.42l7.97,19.49h.15l7.93-19.49c.08-.23.38-.42.65-.42h.61c.31,0,.61.27.69.57l4.69,25.64c.11.53-.15.88-.69.88h-2.48c-.34,0-.65-.27-.72-.53l-2.82-17.05h-.11l-6.87,17.55c-.08.23-.31.42-.65.42h-.69c-.31,0-.57-.19-.65-.42l-6.91-17.55h-.15l-2.75,17.05c-.04.27-.38.53-.69.53h-2.48c-.53,0-.8-.34-.72-.88l4.73-25.64Z"/><path class="cls-1" d="m193.74,54.58c.08-.31.38-.57.69-.57h.61c.23,0,.57.19.65.42l7.97,19.49h.15l7.93-19.49c.08-.23.38-.42.65-.42h.61c.31,0,.61.27.69.57l4.69,25.64c.11.53-.15.88-.69.88h-2.48c-.34,0-.65-.27-.72-.53l-2.82-17.05h-.11l-6.87,17.55c-.08.23-.31.42-.65.42h-.69c-.31,0-.57-.19-.65-.42l-6.9-17.55h-.15l-2.75,17.05c-.04.27-.38.53-.69.53h-2.48c-.53,0-.8-.34-.72-.88l4.73-25.64Z"/><path class="cls-1" d="m222.84,55.11c0-.38.34-.73.72-.73h2.56c.42,0,.72.34.72.73v16.06c0,3.81,2.44,6.48,6.33,6.48s6.41-2.63,6.41-6.41v-16.14c0-.38.3-.73.72-.73h2.56c.38,0,.72.34.72.73v16.33c0,5.8-4.39,10.03-10.41,10.03s-10.34-4.23-10.34-10.03v-16.33Z"/><path class="cls-1" d="m249.88,54.69c0-.38.34-.69.72-.69h.3c.38,0,.65,0,1.14.57l16.02,18.58h.08v-18.04c0-.38.3-.73.72-.73h2.44c.38,0,.72.34.72.73v25.67c0,.38-.34.69-.72.69h-.34c-.38,0-.65,0-1.11-.53l-16.06-19.15h-.08v18.58c0,.38-.31.72-.72.72h-2.4c-.38,0-.72-.34-.72-.72v-25.67Z"/><path class="cls-4" d="m44.94,112.57s-21.52-5.18-35.04-11.04c-1.54-.67-2.98-1.55-4.25-2.63-1.08-.92-2.03-1.98-2.83-3.15-.67-.98-1.23-2.04-1.69-3.14-.35-.84-.63-1.71-.84-2.59C.14,89.36,0,88.14,0,87.56c0-.32,0-.83,0-1.14V.18C0,.12,0,.06,0,0,0,0,90.27,0,90.27,0c0,0-.22,64.95-.08,86.56,0,.85-.12,2.08-.25,2.77-.15.82-.35,1.79-.74,2.81-1.25,3.26-3.87,7.16-8.83,9.39-13.44,6.04-35.44,11.04-35.44,11.04Z"/><path class="cls-3" d="m44.91,111.88s-21.17-5.11-34.46-10.9c-1.51-.66-2.93-1.53-4.18-2.6-1.06-.91-1.99-1.96-2.78-3.11-.66-.97-1.21-2.01-1.66-3.1-.34-.83-.62-1.69-.82-2.56-.16-.66-.29-1.86-.29-2.43,0-.31,0-.82,0-1.13V.89c0-.06,0-.12,0-.18,0,0,88.78,0,88.78,0,0,0-.02,65.16-.08,86.5,0,2.68-1.64,10.25-9.66,13.77-13.28,5.82-34.85,10.9-34.85,10.9Z"/><polyline class="cls-2" points=".72 47.67 .72 43.73 2.9 43.8 2.9 47.53 7.21 47.53 7.21 43.67 11.31 43.67 11.31 47.63 15.27 47.63 15.27 43.56 19.36 43.56 19.36 47.63 23.57 47.63 23.57 43.67 27.55 43.67 27.55 47.87 30.7 47.87 30.7 29.82 28.47 27.6 28.47 21.66 32.22 21.66 32.22 24.45 36.19 24.45 36.19 21.66 39.69 21.66 39.69 24.34 43.78 24.34 43.78 21.77 47.29 21.77 47.29 24.45 51.15 24.45 51.15 21.66 54.99 21.66 54.99 24.34 58.85 24.34 58.85 21.77 62.36 21.77 62.36 27.25 59.85 29.76 59.85 47.75 62.95 47.75 62.95 43.67 66.91 43.67 66.91 47.63 71.11 47.63 71.11 43.55 75.09 43.55 75.09 47.63 79.18 47.63 79.18 43.79 83.16 43.79 83.16 47.74 87.47 47.74 87.47 43.79 89.47 43.92 89.43 81.5 .72 81.55"/><path class="cls-4" d="m89.61,69.91v-.7h-3.53v-5.25h3.46v-.7h-7.98v-5.23h7.91v-.7h-3.63v-5.24h3.7v-.7h-29.59v-3.39h3.43v-3.97h3.26v3.97h4.89v-3.97s3.26,0,3.26,0v3.97h4.78v-3.97s3.26,0,3.26,0v3.97h5.01v-3.97s1.69,0,1.69,0v-.69h-2.4v3.96s-3.59,0-3.59,0v-3.96h-4.67v3.96s-3.37,0-3.37,0v-3.96h-4.67v3.96s-3.48,0-3.48,0v-3.97h-4.66v3.97h-2.74v-1.32h0s0-16.06,0-16.06l2.51-2.51v-6.09h-4.21v2.68s-3.13,0-3.13,0v-2.68h-4.54v2.79h-3.15v-2.79h-4.2v2.68s-3.37,0-3.37,0v-2.68h-4.19v2.79h-3.27v-2.79h-4.43v6.44l2.22,2.21v17.32h-2.46v-3.96s-4.66,0-4.66,0v3.96h-3.49v-3.96h-4.79v3.96s-3.25,0-3.25,0v-3.96h-4.78v3.96h-3.61v-3.96s-2.5,0-2.5,0l-.06.69h1.86v3.97s5.01,0,5.01,0v-3.96h3.39v3.96h4.65v-3.97s3.38,0,3.38,0v3.97h4.89v-3.96h3.27v3.96s3.15,0,3.15,0v3.39H.45v.7h3.87v5.24H.61v.7h8.26v5.23H.56v.7h3.77v5.25H.56v.7h8.31v5.24H.38v.7h3.95v5.35H.56v.7h88.98l.07-.7h-3.73v-5.35h3.67v-.7h-8.01v-5.24h8.07Zm-4.23-.7h-7.98v-5.25h7.98v5.25Zm-63.57,6.64v5.35h-8.03v-5.35h8.03Zm0-11.89v5.25h-8.03v-5.25h8.03Zm-8.03-6.63v-5.24h8.03v5.24h-8.03Zm12.63.7v5.23h-8.15v-5.23h8.15Zm9.81-27.84l-2.46,6.57-2.85-1.91v-4.67h5.32Zm16.78,20.01l2.04,3.55-2.47,3.49c-.91-.68-2.07-1.25-3.55-1.6l.54-1.98h-1.88l1.53-3.57,3.79.11Zm-22.79,24.95h-3.1v-5.24h3.1v5.24Zm0-11.19v5.25h-7.69v-5.25h7.69Zm2.44-10.05l1,3.46-2.74,2.28v-5.73h1.74Zm-1.74-18.22l2.67,1.79c-.31.65-.49,1.37-.49,2.14,0,.66.14,1.29.37,1.86h-2.55v-5.79Zm14.64-2.18l4.03,1.77c-1.49.88-2.51,2.48-2.51,4.33,0,.16.03.31.05.46l-3.98-.1c0-.12.04-.24.04-.36,0-1.08-.35-2.08-.93-2.9l3.31-3.2Zm9.23-1.14l2.43,1.84-1.47,1.93c-.92-.96-2.21-1.56-3.64-1.56-.16,0-.31.03-.47.05l3.14-2.25Zm-2.67,8.55c-.72,0-1.3-.58-1.3-1.3s.58-1.29,1.3-1.29,1.29.58,1.29,1.29-.58,1.3-1.29,1.3Zm-1.99-1.25l-2.31.36c-.01-.14-.04-.27-.04-.41,0-.94.31-1.8.81-2.51l1.83,1.48c-.19.3-.3.65-.3,1.03,0,.02,0,.03,0,.05Zm3.22-1.61c-.34-.27-.76-.43-1.23-.43s-.89.17-1.24.44l-1.85-1.5c.79-.8,1.88-1.3,3.09-1.3s2.34.52,3.13,1.34l-1.9,1.45Zm-12.64,5.05l-1.2-2.04c.19-.18.34-.39.45-.63l2.39.19c-.24,1.01-.83,1.88-1.64,2.48Zm-3.87-3.49c0-.72.58-1.29,1.3-1.29s1.29.58,1.29,1.29-.58,1.3-1.29,1.3-1.3-.58-1.3-1.3Zm5.64,0c0,.11-.02.21-.03.32l-2.32-.19s.01-.09.01-.14c0-.38-.11-.73-.3-1.04l1.87-1.43c.48.7.77,1.55.77,2.46Zm-3.11-1.56c-.34-.27-.76-.43-1.23-.43s-.9.17-1.24.44l-1.85-1.5c.79-.8,1.88-1.29,3.09-1.29s2.33.52,3.12,1.34l-1.89,1.45Zm-5.58,1.56c0-.94.31-1.8.81-2.51l1.83,1.48c-.18.3-.3.65-.3,1.03,0,.72.39,1.35.96,1.7l-.94,2.15c-1.4-.72-2.37-2.17-2.37-3.85Zm3.96,1.96c.13.03.26.04.39.04.28,0,.54-.06.79-.16l1.18,2.01c-.59.31-1.26.5-1.97.5-.47,0-.91-.09-1.33-.23l.94-2.16Zm3.71,1.81l3.86,2.99-5.93,2.58-.83-4.33c1.11-.09,2.11-.54,2.9-1.24Zm.57,5.18l.98,5.09h-2.27l.6,2.13c-.73.25-1.38.54-1.96.86l-2.01-6.04,4.67-2.03Zm6.58,5.79l-1.52,5.51c-.54-.12-1.11-.21-1.76-.21-.75,0-1.42.11-2.04.27l-1.58-5.57h6.9Zm5.7,6.04l-3.59,2.77c-.19-.62-.5-1.26-1-1.82-.51-.58-1.16-1.01-1.93-1.29l1.02-3.71c3.12.73,4.7,2.47,5.48,4.05Zm.8,14.69h-4.12v-5.94s4.12,0,4.12,0v5.94Zm-20.5-11.88l-.03,7.99h-3.66v-10.83l3.81,2.15c-.1.41-.13.68-.13.7Zm6.94-6.71l1.04,3.64c-.71.28-1.32.68-1.81,1.22-.5.56-.81,1.18-1.01,1.77l-3.43-2.65c.83-1.4,2.38-3,5.22-3.99Zm8.71,9.48v15.15h-1.92v-19.99c.31.2.6.42.84.69,1.42,1.61,1.09,4.08,1.08,4.16Zm-2.49-5.14v20.28h-2.2v-20.7h-.57v20.7h-2.23v-20.26c.72-.31,1.57-.48,2.56-.48.94,0,1.75.16,2.43.45Zm-6.44,1c.25-.27.55-.5.87-.7v19.98h-2.07l.05-15.55s-.22-2.23,1.15-3.74Zm-5.35-.69l3.57,2.76c-.18.94-.12,1.67-.11,1.7v2.79h-4.1l.02-5.17c0-.08.09-.96.62-2.08Zm-.64,7.99h4.09l-.02,5.94h-4.1l.02-5.94Zm19.78-.74h-4.12v-2.37c0-.06.13-.97-.07-2.07l3.7-2.86c.47,1.24.49,2.25.49,2.35v4.96Zm-18.25-17.09l1.91,5.7c-2.36,1.52-3.39,3.5-3.83,4.81l-3.29-1.87,2.82-2.34-1.05-3.61,3.43-2.69Zm-5.93,20.62h3.65l-.03,9.21h-3.62v-9.21Zm4.38,3.9h4.1l-.02,5.31h-4.1l.02-5.31Zm15.68,5.31v-5.31s4.12,0,4.12,0v5.31h-4.12Zm4.86-9.21h3.43v9.21h-3.43v-9.21Zm0-.74v-7.74s0-.66-.24-1.58h3.67v9.33h-3.43Zm3.43-10.03h-3.88c-.37-1.09-1.05-2.38-2.28-3.48l2.53-3.57,3.64-.05v7.1Zm-12.35-7.51h-3.21l-1.04-5.37,3.18-1.38,2.74,2.84-1.68,3.91Zm-.98-7.56l-4.06-3.15c.57-.64.98-1.41,1.17-2.28l4.15.1c.28,1.21,1,2.25,1.98,2.95l-3.24,2.38Zm1.98-5.38l2.33-.36c.16.39.43.72.78.95l-.97,1.77-.28.21c-.91-.58-1.58-1.49-1.87-2.57Zm2.67,2.73l1.06-1.88c.15.03.3.06.46.06.28,0,.54-.06.78-.16l1.19,2.01c-.6.31-1.26.5-1.97.5-.62,0-1.2-.13-1.73-.37l.22-.16Zm4.08-.34l-1.2-2.04c.38-.37.62-.88.62-1.45,0-.38-.11-.73-.3-1.03l1.88-1.43c.48.7.77,1.55.77,2.46,0,1.43-.7,2.7-1.77,3.49Zm1.52-6.42l1.68-2.19h1.4v7.33s-2.59-.09-2.59-.09c.3-.65.48-1.36.48-2.12,0-1.1-.36-2.11-.96-2.93Zm3.07-2.89h-1.45l-2.69-2.04v-1.58h4.14v3.61Zm-4.84-2.04l-4.23,3.04-4.41-1.94-.38-2.67h9.02v1.57Zm-9.73-1.57l.4,2.79-3.31,3.2c-.92-.98-2.21-1.6-3.66-1.6-1.25,0-2.39.47-3.27,1.23l2.1-5.62h7.73Zm-13.8,11.99h2.9c.83,1.4,2.31,2.36,4.03,2.46l.89,4.6-1.8.78-3.65-3.76-2.37-.11v-3.98Zm2.06,4.77l3.6,3.7-3.52,2.76h-2.13v-6.55l2.05.1Zm-2.75,16.31h-3.1v-5.23h3.1v5.23Zm-3.8,6.65v5.24h-8.15v-5.24h8.15Zm-3.9,5.94h7.69v5.35h-7.69v-5.35Zm37.45-17.82h3.44v5.23h-3.44v-5.23Zm8.36-.7v-5.24h8.16v5.24h-8.16Zm3.81.7v5.23h-8.03v-5.23h8.03Zm-12.17,5.93h7.89v5.25h-7.89v-5.25Zm0,5.95h3.34v5.24h-3.34v-5.24Zm0,5.94h7.74v5.35h-7.74v-5.35Zm8.44,0h8.03v5.35h-8.03v-5.35Zm-4.4-.7v-5.24h8.16v5.24h-8.16Zm4.55-5.94v-5.25h8.15v5.25h-8.15Zm12.31-5.95h-8.03v-5.23h8.03v5.23Zm4.28-5.93h-7.98v-5.24h7.98v5.24Zm-17.53-5.24v5.24h-7.65v-5.24h7.65Zm-8.35,1.28l-3.62.05-2.01-3.49,1.69-2.75,3.92-.41v1.24s0,0,0,0v5.36Zm-4.35-6.85l-1.84,2.99-3.85-.11-2.8-2.9,3.32-2.44c.71.38,1.5.61,2.35.61,1.75,0,3.29-.9,4.2-2.25l2.96.11v3.53s-4.34.46-4.34.46Zm-26.23-19.04v-5.45h3.03v2.79h4.66v-2.79h2.79v2.68h4.77v-2.68s2.79,0,2.79,0v2.68h4.55v-2.68h3.14v2.68h4.54v-2.68s2.8,0,2.8,0v5.1s-2.35,2.36-2.35,2.36h-28.71l-2.01-2.01Zm1.52,29.85h-7.69v-5.24h7.69v5.24Zm-25.17-5.24h8.05v5.24H5.03v-5.24Zm4.55,5.94h7.98v5.23h-7.98v-5.23Zm-4.55,5.93h8.05v5.25H5.03v-5.25Zm4.55,5.95h7.98v5.24h-7.98v-5.24Zm-4.55,5.94h8.05v5.35H5.03v-5.35Zm80.15,5.35h-8.04v-5.35h8.04v5.35Zm-4.34-6.05h-7.98v-5.24h7.98v5.24Z"/></svg>